<?xml version="1.0" standalone="no"?>
<!DOCTYPE svg PUBLIC "-//W3C//DTD SVG 20010904//EN"
 "http://www.w3.org/TR/2001/REC-SVG-20010904/DTD/svg10.dtd">
<svg version="1.0" xmlns="http://www.w3.org/2000/svg"
 width="500.000000pt" height="500.000000pt" viewBox="0 0 500.000000 500.000000"
 preserveAspectRatio="xMidYMid meet">
<metadata>
Created by potrace 1.14, written by Peter Selinger 2001-2017
</metadata>
<g transform="translate(0.000000,500.000000) scale(0.100000,-0.100000)"
fill="#000000" stroke="none">
<path d="M4327 4025 c-170 -24 -310 -45 -312 -47 -4 -3 -111 -701 -118 -765
-2 -23 1 -47 7 -54 8 -9 8 -10 -1 -5 -8 4 -14 2 -14 -6 -1 -7 -3 -22 -5 -33
-4 -26 -14 -101 -18 -145 -2 -19 -7 -43 -11 -53 -4 -9 -5 -26 -2 -37 3 -10 1
-20 -3 -22 -4 -2 -10 -19 -13 -38 -3 -19 -12 -83 -21 -143 -9 -59 -14 -111
-11 -116 3 -5 1 -11 -3 -13 -7 -2 -102 -586 -102 -625 0 -10 42 -13 174 -13
158 0 175 2 180 18 3 9 21 76 41 147 20 72 47 168 60 215 122 430 179 634 321
1150 90 327 167 603 170 613 3 9 2 17 -3 16 -4 0 -147 -20 -316 -44z m-404
-910 c-3 -9 -8 -14 -10 -11 -3 3 -2 9 2 15 9 16 15 13 8 -4z m74 -80 c0 -8 -4
-12 -9 -9 -5 3 -6 10 -3 15 9 13 12 11 12 -6z m-32 -13 c-3 -3 -11 0 -18 7 -9
10 -8 11 6 5 10 -3 15 -9 12 -12z m60 -80 c-3 -3 -11 0 -18 7 -9 10 -8 11 6 5
10 -3 15 -9 12 -12z m10 -82 c3 -6 -1 -7 -9 -4 -18 7 -21 14 -7 14 6 0 13 -4
16 -10z"/>
<path d="M1735 4000 c-504 -131 -910 -469 -1017 -847 -31 -110 -31 -273 1
-356 41 -104 114 -164 233 -191 67 -16 164 -23 173 -14 3 3 -4 30 -17 59 -19
48 -22 72 -22 209 -1 296 64 477 242 673 99 109 228 196 384 261 29 11 43 26
60 63 13 26 30 55 38 63 8 8 16 22 18 30 2 8 9 18 15 22 7 4 8 8 3 8 -4 0 -1
11 8 25 21 32 19 32 -119 -5z"/>
<path d="M2050 3994 c0 -8 5 -12 10 -9 6 4 8 11 5 16 -9 14 -15 11 -15 -7z"/>
<path d="M2333 3985 c0 -8 4 -12 9 -9 5 3 6 10 3 15 -9 13 -12 11 -12 -6z"/>
<path d="M2041 3954 c0 -11 3 -14 6 -6 3 7 2 16 -1 19 -3 4 -6 -2 -5 -13z"/>
<path d="M2433 3955 c-10 -11 -9 -13 6 -12 11 1 17 7 14 14 -6 16 -5 16 -20
-2z"/>
<path d="M1907 3953 c-10 -9 -9 -23 1 -23 5 0 9 7 9 15 0 17 -1 18 -10 8z"/>
<path d="M2586 3933 c5 -5 12 -12 16 -18 4 -6 8 -2 8 8 0 9 -7 17 -17 17 -9 0
-12 -3 -7 -7z"/>
<path d="M2251 3914 c0 -11 3 -14 6 -6 3 7 2 16 -1 19 -3 4 -6 -2 -5 -13z"/>
<path d="M1980 3891 c0 -7 -5 -9 -12 -5 -7 5 -8 3 -3 -5 5 -9 10 -10 18 -2 6
6 8 14 4 18 -4 3 -7 1 -7 -6z"/>
<path d="M2430 3886 c0 -2 7 -7 16 -10 8 -3 12 -2 9 4 -6 10 -25 14 -25 6z"/>
<path d="M2586 3882 c-3 -5 1 -9 9 -9 8 0 12 4 9 9 -3 4 -7 8 -9 8 -2 0 -6 -4
-9 -8z"/>
<path d="M1840 3860 c6 -11 13 -20 16 -20 2 0 0 9 -6 20 -6 11 -13 20 -16 20
-2 0 0 -9 6 -20z"/>
<path d="M2486 3837 c3 -10 9 -15 12 -12 3 3 0 11 -7 18 -10 9 -11 8 -5 -6z"/>
<path d="M2515 3840 c-3 -5 -1 -10 4 -10 6 0 11 5 11 10 0 6 -2 10 -4 10 -3 0
-8 -4 -11 -10z"/>
<path d="M2750 3796 c0 -2 7 -7 16 -10 8 -3 12 -2 9 4 -6 10 -25 14 -25 6z"/>
<path d="M2576 3771 c-3 -5 0 -13 7 -19 10 -8 13 -6 13 9 0 20 -11 25 -20 10z"/>
<path d="M2678 3762 c-6 -20 6 -23 29 -9 6 4 14 1 16 -5 3 -8 6 -5 6 6 1 13
-4 16 -16 12 -9 -4 -20 -2 -23 5 -5 6 -9 3 -12 -9z"/>
<path d="M2774 3763 c4 -8 2 -13 -5 -13 -15 0 -2 -15 14 -15 7 -1 11 -7 9 -15
-3 -12 -1 -12 8 -3 10 9 7 17 -10 35 -13 12 -20 17 -16 11z"/>
<path d="M2852 3750 c-7 -11 -8 -20 -3 -20 9 0 24 30 18 36 -1 2 -8 -6 -15
-16z"/>
<path d="M2610 3750 c0 -6 7 -10 15 -10 8 0 15 2 15 4 0 2 -7 6 -15 10 -8 3
-15 1 -15 -4z"/>
<path d="M2547 3743 c-10 -10 -8 -23 4 -23 5 0 8 4 5 9 -4 5 0 12 6 14 7 3 8
6 2 6 -6 1 -14 -2 -17 -6z"/>
<path d="M2745 3712 c0 -25 3 -27 30 -23 17 2 23 6 15 9 -8 2 -22 13 -30 23
-14 18 -15 17 -15 -9z"/>
<path d="M2697 3713 c3 -7 6 -13 8 -13 2 0 5 6 8 13 3 8 -1 14 -8 14 -7 0 -11
-6 -8 -14z"/>
<path d="M2905 3719 c-11 -17 1 -21 15 -4 8 9 8 15 2 15 -6 0 -14 -5 -17 -11z"/>
<path d="M2827 3708 c6 -7 13 -20 16 -28 3 -8 5 -3 4 13 -1 16 -7 27 -15 27
-10 0 -11 -4 -5 -12z"/>
<path d="M2960 3712 c0 -14 29 -36 37 -28 3 3 1 6 -5 6 -7 0 -11 5 -9 11 1 6
-4 14 -10 16 -7 3 -13 0 -13 -5z"/>
<path d="M2568 3703 c6 -2 18 -2 25 0 6 3 1 5 -13 5 -14 0 -19 -2 -12 -5z"/>
<path d="M2917 3693 c-4 -3 -7 -13 -7 -21 0 -18 13 -7 16 13 2 17 1 18 -9 8z"/>
<path d="M2885 3673 c5 -19 3 -22 -12 -17 -16 6 -16 5 2 -10 18 -16 18 -17 2
-12 -10 3 -23 6 -28 6 -6 0 -7 5 -3 12 4 7 3 8 -5 4 -9 -6 -9 -11 0 -22 6 -8
14 -12 17 -10 2 3 12 1 21 -4 31 -16 40 2 20 40 -11 20 -17 25 -14 13z"/>
<path d="M2941 3685 c0 -5 4 -17 9 -25 7 -11 10 -11 10 -2 0 7 5 10 12 6 7 -4
8 -3 4 5 -4 6 -11 9 -16 6 -4 -3 -11 1 -13 7 -3 7 -6 9 -6 3z"/>
<path d="M2781 3670 c-9 -5 -10 -10 -2 -14 6 -4 11 -3 11 3 0 6 7 8 15 5 8 -4
15 -4 15 -1 0 10 -27 15 -39 7z"/>
<path d="M2630 3661 c0 -6 4 -13 10 -16 6 -3 7 1 4 9 -7 18 -14 21 -14 7z"/>
<path d="M2995 3660 c3 -5 8 -10 11 -10 2 0 4 5 4 10 0 6 -5 10 -11 10 -5 0
-7 -4 -4 -10z"/>
<path d="M2727 3639 c3 -10 9 -19 14 -19 5 0 8 -10 8 -22 -1 -17 -2 -19 -6 -5
-5 21 -33 23 -33 3 0 -20 -12 -26 -39 -19 -16 4 -21 11 -18 24 3 11 1 19 -3
19 -15 0 -22 -20 -12 -33 5 -7 8 -21 6 -32 -3 -19 -2 -19 10 -2 12 16 14 16
20 1 3 -8 6 -24 6 -33 0 -10 7 -18 15 -18 8 0 12 4 9 9 -3 5 0 16 7 24 10 12
9 13 -5 8 -9 -3 -16 -2 -16 4 0 10 29 38 33 31 20 -36 24 -47 17 -60 -12 -21
4 -43 25 -35 14 5 15 9 6 20 -9 11 -9 16 0 22 8 4 9 3 5 -4 -5 -8 0 -12 13
-12 12 0 21 -5 21 -11 0 -5 -4 -8 -9 -5 -11 7 -34 -20 -27 -32 3 -6 0 -15 -8
-21 -10 -9 -15 -8 -19 3 -4 11 -1 13 11 9 13 -5 14 -3 5 7 -16 17 -35 2 -28
-23 2 -12 2 -16 -1 -9 -3 6 -11 9 -17 5 -7 -4 -8 0 -3 13 13 34 11 38 -19 44
-19 4 -29 11 -27 21 3 11 1 11 -9 2 -8 -8 -9 -17 -3 -25 6 -7 9 -26 9 -43 -1
-16 3 -36 9 -44 9 -12 8 -13 -3 -7 -11 7 -13 1 -9 -28 2 -21 0 -36 -7 -36 -5
0 -1 -7 9 -15 16 -12 22 -12 28 -2 6 9 8 9 8 -1 0 -7 4 -11 9 -8 11 7 8 -51
-4 -61 -4 -4 -5 0 -2 9 4 11 -3 24 -20 38 -34 26 -42 25 -38 -5 1 -14 -1 -25
-4 -25 -4 0 -12 -18 -18 -40 -5 -22 -6 -40 -2 -40 5 0 9 -4 9 -10 0 -5 -7 -7
-15 -4 -8 4 -15 1 -15 -4 0 -6 -16 -37 -34 -68 -19 -32 -32 -62 -29 -68 3 -6
3 -8 -2 -4 -10 9 -56 -42 -49 -54 3 -4 0 -8 -6 -8 -6 0 -8 -4 -5 -10 3 -5 1
-10 -5 -10 -6 0 -42 -25 -79 -55 -60 -48 -158 -103 -201 -112 -8 -2 -46 -6
-83 -9 -68 -6 -68 -6 -63 17 3 13 18 84 32 157 22 113 24 135 12 150 -12 15
-11 16 4 4 15 -12 17 -8 24 35 5 26 8 55 9 63 0 8 3 20 6 25 5 8 17 67 24 120
1 6 5 22 9 37 5 15 3 35 -4 49 -11 19 -10 21 3 16 11 -4 14 -2 10 9 -3 7 1 14
8 14 7 0 9 3 6 6 -4 4 -14 1 -24 -7 -9 -8 -14 -9 -10 -2 5 8 -1 11 -20 10 -18
-1 -27 3 -25 11 1 7 -4 15 -12 18 -21 8 -8 34 18 34 17 0 18 -2 6 -11 -11 -8
-9 -9 10 -3 14 4 31 7 38 7 14 0 16 13 3 21 -5 4 -11 1 -13 -5 -3 -8 -12 -9
-31 -3 -29 10 -37 26 -16 33 6 2 9 -1 5 -7 -3 -5 2 -13 11 -16 18 -7 35 12 26
29 -4 5 3 1 15 -9 12 -11 22 -26 23 -35 0 -9 5 -3 9 12 5 16 6 35 3 43 -3 8 0
21 7 29 10 12 9 15 -7 15 -19 0 -26 -31 -10 -46 14 -14 6 -26 -8 -14 -9 7 -14
19 -11 26 3 7 0 16 -6 20 -6 4 -8 3 -5 -3 11 -18 -26 -42 -50 -32 -13 4 -23
11 -23 14 0 4 10 4 23 1 12 -3 16 -3 9 0 -6 3 -10 9 -7 14 3 4 -3 14 -12 21
-10 8 -14 9 -10 2 4 -6 3 -14 -2 -18 -5 -3 -14 3 -20 12 -6 10 -11 13 -11 8 0
-6 6 -17 12 -23 10 -10 10 -15 -1 -21 -7 -5 -11 -13 -8 -18 3 -5 2 -15 -4 -23
-9 -16 -10 -14 -13 29 -1 7 -11 20 -23 28 -20 13 -21 13 -16 -7 4 -13 0 -26
-8 -31 -12 -7 -12 -9 1 -9 13 0 13 -1 0 -10 -13 -9 -13 -10 0 -10 13 0 13 -1
0 -10 -24 -15 -6 -20 33 -8 20 6 37 18 37 25 0 8 5 11 10 8 6 -4 7 -12 3 -18
-11 -18 -12 -36 -2 -43 12 -7 11 -24 -2 -24 -5 0 -7 5 -3 11 4 8 0 9 -15 4
-22 -7 -30 10 -8 18 6 2 9 7 6 11 -3 3 -17 2 -30 -3 -13 -5 -18 -10 -11 -10 6
-1 12 -6 12 -12 0 -8 -4 -8 -15 1 -17 14 -35 5 -35 -17 0 -9 -6 -13 -15 -9 -8
3 -15 0 -15 -6 0 -19 -20 5 -25 29 -2 13 3 24 12 27 12 5 14 1 9 -17 -4 -16
-1 -24 8 -24 14 0 11 33 -6 54 -6 7 -6 19 1 30 6 10 11 12 11 6 0 -7 7 -13 17
-13 9 0 13 3 10 7 -4 3 -2 12 4 20 9 11 7 13 -12 9 -13 -2 -29 1 -35 5 -14 11
-46 1 -38 -12 3 -5 0 -9 -5 -9 -6 0 -11 4 -11 10 0 5 -4 9 -9 7 -5 -1 -17 7
-26 18 -16 20 -16 20 -9 -4 4 -16 3 -21 -5 -17 -6 4 -11 3 -11 -3 0 -5 5 -13
10 -16 8 -5 7 -11 -1 -21 -9 -11 -9 -18 -1 -26 9 -9 12 -9 12 1 0 8 6 11 15 7
8 -3 15 -1 15 4 0 6 -4 10 -10 10 -5 0 -10 8 -10 18 1 15 2 15 18 -3 19 -22
42 -30 42 -16 0 5 -6 11 -12 13 -7 3 -3 7 9 10 17 4 20 1 19 -17 0 -14 -7 -22
-16 -20 -8 1 -20 -2 -26 -7 -7 -5 -16 -8 -20 -6 -15 4 -55 -23 -49 -33 4 -5 1
-9 -4 -9 -6 0 -11 -5 -11 -11 0 -5 6 -7 13 -3 7 4 9 3 4 -2 -5 -5 -14 -9 -20
-9 -7 0 -12 -11 -13 -25 0 -14 -6 -34 -13 -45 -12 -19 -12 -19 -8 5 3 14 1 34
-3 45 -5 11 -9 14 -9 7 -1 -8 -8 -11 -20 -7 -13 4 -20 0 -24 -15 -3 -11 -11
-20 -19 -20 -8 0 -9 3 -2 8 13 9 26 42 16 42 -9 0 -37 -42 -34 -51 1 -4 -8 -5
-18 -2 -25 7 -26 21 -3 19 10 0 18 5 18 13 0 15 45 49 45 34 0 -14 58 -3 64
13 3 7 1 16 -4 19 -6 4 -10 1 -10 -6 0 -7 -3 -9 -6 -6 -4 3 -16 2 -27 -4 -10
-6 -17 -7 -14 -2 3 4 -1 14 -8 20 -11 10 -17 10 -29 -3 -9 -8 -16 -11 -16 -6
0 15 28 34 40 27 6 -4 9 2 7 14 -4 29 -15 37 -23 17 -5 -14 -9 -15 -15 -5 -4
7 -4 18 1 24 6 8 5 12 -3 12 -7 0 -14 -11 -15 -24 -1 -12 -3 -34 -4 -47 -1
-17 -7 -22 -20 -18 -12 3 -15 8 -9 16 6 7 4 18 -4 30 -14 18 -14 18 -13 0 0
-11 -2 -26 -6 -35 -5 -11 3 -19 25 -30 36 -16 40 -32 9 -37 -14 -2 -20 2 -21
15 0 16 -1 16 -9 -2 l-9 -20 -1 20 c-2 14 -5 11 -9 -10 -4 -17 -3 -36 3 -44 8
-11 8 -13 -1 -8 -13 8 -15 2 -37 -95 -9 -37 -13 -74 -10 -83 4 -8 2 -15 -3
-15 -10 0 -22 -45 -49 -190 -2 -14 -7 -36 -11 -50 -4 -14 -8 -32 -10 -40 -1
-8 -36 -170 -78 -360 -42 -190 -98 -448 -125 -575 -153 -718 -210 -989 -210
-997 0 -4 134 -8 298 -8 l297 0 99 463 c55 254 111 518 126 587 15 69 47 216
71 327 l43 202 62 6 c283 31 425 -52 490 -286 26 -91 26 -370 1 -489 -52 -241
-136 -392 -251 -453 -32 -16 -60 -21 -126 -21 -100 -1 -149 18 -229 90 -27 24
-52 44 -55 44 -17 0 -50 -151 -51 -231 0 -76 3 -92 30 -145 25 -48 41 -65 85
-92 80 -48 141 -64 266 -69 236 -11 418 59 571 220 132 139 211 270 271 452
64 189 87 323 86 500 0 179 -14 249 -79 380 -70 145 -171 230 -328 280 l-69
22 48 34 c123 84 204 173 265 289 31 61 49 111 36 103 -5 -3 -7 -1 -4 4 4 6 0
14 -9 17 -9 4 -14 9 -11 13 4 3 14 0 23 -7 20 -18 33 0 30 41 -1 16 1 29 5 29
14 0 20 53 7 61 -7 5 -8 9 -3 9 15 0 13 139 -2 145 -7 2 -13 -2 -13 -10 0 -8
-4 -15 -8 -15 -4 0 -8 9 -8 20 0 12 7 20 18 20 11 0 15 5 12 15 -4 8 -14 15
-23 15 -14 0 -14 2 -1 11 13 9 13 10 -2 6 -9 -3 -19 -1 -22 6 -2 7 -5 4 -5 -6
-1 -10 -5 -16 -10 -12 -5 3 -13 0 -16 -6 -11 -17 3 -23 20 -9 11 9 19 10 26 3
7 -7 2 -12 -15 -17 -16 -4 -26 -13 -26 -25 0 -10 -7 -18 -15 -18 -8 0 -15 4
-15 9 0 4 4 8 9 8 5 0 9 16 8 35 -1 34 -1 35 -14 13 -7 -13 -12 -18 -13 -13 0
6 -9 11 -20 12 -13 1 -18 -2 -14 -9 4 -7 2 -8 -5 -4 -6 4 -13 1 -16 -6 -3 -7
-19 -13 -35 -14 -16 -1 -27 2 -25 6 3 4 -6 15 -19 23 -17 12 -22 22 -19 40 4
19 0 26 -14 30 -15 4 -15 5 -1 6 9 0 19 9 21 19 4 16 5 16 6 0 0 -10 5 -18 11
-18 5 0 6 7 3 17 -4 11 -3 14 5 9 15 -9 16 -52 2 -61 -6 -3 -7 1 -4 9 3 9 2
16 -4 16 -5 0 -12 -11 -14 -25 -7 -36 17 -30 40 10 l11 20 1 -20 c0 -17 2 -17
10 -5 7 11 10 12 10 2 0 -10 3 -10 15 2 21 20 19 25 -7 18 -16 -4 -19 -2 -13
8 6 9 4 12 -7 8 -8 -4 -20 2 -27 14 -6 10 -20 18 -29 17 -9 -1 -25 1 -34 4
-42 16 -46 16 -41 -4z m40 -5 c-3 -3 -12 -4 -19 -1 -8 3 -5 6 6 6 11 1 17 -2
13 -5z m-672 -53 c3 -5 1 -12 -5 -16 -5 -3 -10 1 -10 9 0 18 6 21 15 7z m677
-26 c-8 -16 -9 -16 -15 -1 -4 10 -3 15 3 11 6 -3 10 -1 10 6 0 7 3 10 6 6 3
-3 2 -13 -4 -22z m-732 -17 c0 -5 -4 -8 -10 -8 -5 0 -10 10 -10 23 0 18 2 19
10 7 5 -8 10 -18 10 -22z m-130 -38 c0 -5 -5 -10 -11 -10 -5 0 -7 -5 -4 -10 4
-6 11 -8 16 -5 5 4 9 -2 9 -11 0 -16 -1 -16 -18 -1 -19 18 -57 5 -46 -16 4 -7
1 -6 -7 2 -11 10 -11 15 -1 18 6 3 10 9 7 13 -3 5 -1 11 5 15 5 3 10 0 10 -7
0 -8 5 -6 11 5 11 18 29 23 29 7z m1050 -2 c0 -5 -10 -6 -22 -3 -13 3 -18 3
-12 -2 6 -4 14 -18 18 -30 8 -24 31 -22 52 4 10 11 12 10 17 -6 4 -15 1 -18
-12 -14 -13 5 -14 3 -3 -8 20 -21 14 -34 -8 -14 -17 15 -22 16 -37 4 -9 -8
-14 -9 -10 -3 8 13 -24 24 -53 19 -13 -3 -17 1 -13 12 5 12 7 12 14 1 7 -10 9
-8 9 6 0 16 2 17 18 5 15 -11 15 -11 -1 7 -18 19 -19 19 -38 -5 -10 -13 -19
-29 -19 -37 0 -8 -5 -14 -11 -14 -5 0 -8 -4 -5 -8 2 -4 -4 -9 -15 -9 -12 -1
-19 5 -19 15 0 15 2 15 10 2 9 -13 14 -7 11 12 0 4 4 19 9 34 7 17 15 24 26
20 8 -3 17 0 20 7 5 14 74 18 74 5z m-1250 -27 c0 -9 -24 -21 -41 -21 -5 0 -9
5 -9 11 0 5 4 8 9 4 5 -3 12 -1 16 5 8 12 25 13 25 1z m348 -6 c1 -1 -6 -5
-16 -7 -10 -3 -27 1 -37 9 -17 12 -16 13 15 7 19 -4 36 -8 38 -9z m652 -5 c0
-3 -4 -10 -8 -17 -6 -9 -11 -7 -20 7 -10 16 -9 18 8 17 11 -1 20 -4 20 -7z
m95 -9 c3 -5 2 -12 -3 -15 -5 -3 -9 1 -9 9 0 17 3 19 12 6z m248 -12 c-4 -15
-8 -17 -14 -8 -6 11 4 28 18 29 0 0 -1 -9 -4 -21z m-1163 1 c0 -5 -5 -10 -11
-10 -5 0 -7 5 -4 10 3 6 8 10 11 10 2 0 4 -4 4 -10z m180 6 c0 -2 -7 -9 -15
-16 -13 -11 -14 -10 -9 4 5 14 24 23 24 12z m50 -10 c-15 -15 -12 -29 5 -22
15 5 39 -26 28 -38 -14 -13 -24 -5 -18 15 6 18 4 19 -12 11 -10 -5 -31 -8 -46
-7 -20 2 -27 -1 -24 -9 3 -7 -1 -13 -9 -13 -12 0 -12 3 0 21 8 13 22 20 35 18
18 -3 25 6 23 29 -1 3 6 6 14 6 10 0 11 -4 4 -11z m-285 -6 c-3 -5 -12 -10
-18 -10 -7 0 -6 4 3 10 19 12 23 12 15 0z m195 -7 c0 -10 -4 -14 -8 -8 -4 6
-11 13 -16 18 -5 4 -2 7 7 7 10 0 17 -8 17 -17z m-159 -18 c5 3 6 -1 2 -10 -5
-13 -7 -14 -14 -3 -5 7 -8 20 -8 28 1 11 3 10 6 -3 2 -9 9 -15 14 -12z m109 9
c0 9 4 15 10 11 5 -3 7 -12 3 -20 -6 -18 -49 -20 -59 -3 -5 8 -2 9 10 5 14 -6
17 -3 12 10 -5 15 -4 15 9 -1 14 -18 15 -18 15 -2z m737 0 c-3 -3 -12 -4 -19
-1 -8 3 -5 6 6 6 11 1 17 -2 13 -5z m81 -16 c-1 -13 2 -24 7 -24 6 -1 9 2 8 7
-2 5 2 9 7 9 14 0 12 -16 -4 -29 -18 -15 -37 8 -29 37 7 29 15 28 11 0z
m-1042 1 c3 -6 1 -15 -5 -20 -6 -5 -9 -6 -6 -3 3 4 0 13 -6 21 -8 9 -8 13 -1
13 6 0 14 -5 18 -11z m84 1 c0 -5 -2 -10 -4 -10 -3 0 -8 5 -11 10 -3 6 -1 10
4 10 6 0 11 -4 11 -10z m940 1 c0 -6 -4 -12 -8 -15 -5 -3 -9 1 -9 9 0 8 4 15
9 15 4 0 8 -4 8 -9z m185 -11 c-3 -4 1 -11 7 -13 8 -4 7 -6 -4 -6 -11 -1 -16
6 -15 18 0 11 5 17 9 15 5 -3 6 -9 3 -14z m-1042 -3 c3 -8 -1 -14 -8 -14 -7 0
-11 6 -8 14 3 7 6 13 8 13 2 0 5 -6 8 -13z m797 3 c0 -5 -4 -10 -10 -10 -5 0
-10 5 -10 10 0 6 5 10 10 10 6 0 10 -4 10 -10z m307 -5 c0 -17 -13 -20 -21 -6
-4 5 0 12 6 14 7 3 13 6 14 6 0 1 1 -6 1 -14z m-907 -2 c0 -1 -8 -7 -18 -12
-13 -7 -19 -6 -19 2 0 7 9 13 19 13 10 0 18 -1 18 -3z m760 -2 c0 -5 -7 -12
-16 -15 -14 -5 -15 -4 -4 9 14 17 20 19 20 6z m68 -40 c-6 -2 -15 4 -20 13 -5
9 -13 14 -19 11 -5 -4 -9 -2 -9 4 0 5 8 11 18 13 19 4 48 -34 30 -41z m-1288
35 c0 -2 -7 -6 -15 -10 -8 -3 -15 -1 -15 4 0 6 7 10 15 10 8 0 15 -2 15 -4z
m1388 -16 c-7 -10 -14 -17 -17 -15 -4 4 18 35 25 35 2 0 -1 -9 -8 -20z m-316
-22 c-8 -8 -9 -4 -5 13 4 13 8 18 11 10 2 -7 -1 -18 -6 -23z m-812 12 c0 -5
-2 -10 -4 -10 -3 0 -8 5 -11 10 -3 6 -1 10 4 10 6 0 11 -4 11 -10z m44 2 c2
-4 -5 -9 -17 -9 -17 -2 -19 0 -7 7 18 12 18 12 24 2z m73 -12 c1 -16 -1 -17
-12 -7 -11 10 -8 19 10 27 1 0 1 -9 2 -20z m-350 4 c-3 -3 -12 -4 -19 -1 -8 3
-5 6 6 6 11 1 17 -2 13 -5z m443 0 c0 -8 -19 -13 -24 -6 -3 5 1 9 9 9 8 0 15
-2 15 -3z m705 -3 c-3 -5 -1 -12 5 -16 5 -3 10 -10 10 -16 0 -5 -8 -1 -18 9
-19 17 -19 32 -1 32 6 0 8 -4 4 -9z m-1191 -13 c-12 -22 -37 -48 -45 -48 -4 0
5 14 19 30 28 32 38 38 26 18z m1251 -7 c-8 -14 -25 -14 -25 0 0 5 5 7 10 4 6
-3 10 -1 10 6 0 7 3 10 6 6 3 -3 3 -10 -1 -16z m130 9 c3 -5 1 -10 -4 -10 -6
0 -11 5 -11 10 0 6 2 10 4 10 3 0 8 -4 11 -10z m-1268 -19 c0 -11 -5 -18 -9
-15 -4 3 -5 11 -1 19 7 21 12 19 10 -4z m333 4 c0 -1 -8 -5 -18 -7 -11 -3 -19
0 -19 7 0 7 8 10 19 7 10 -2 18 -6 18 -7z m890 11 c0 -2 -7 -7 -16 -10 -8 -3
-12 -2 -9 4 6 10 25 14 25 6z m-188 -30 c-4 -15 -7 -17 -10 -6 -3 8 -10 18
-16 22 -6 4 -1 6 10 6 16 -2 20 -7 16 -22z m-1123 11 c-2 -1 -13 -9 -24 -17
-19 -14 -19 -14 -6 3 7 9 18 17 24 17 6 0 8 -1 6 -3z m1374 -21 c9 5 9 4 0 -6
-6 -7 -9 -20 -6 -29 4 -9 -3 -5 -14 9 -11 13 -18 31 -15 38 4 12 7 11 14 -2 5
-9 15 -13 21 -10z m-1058 -6 c3 -6 -1 -7 -9 -4 -18 7 -21 14 -7 14 6 0 13 -4
16 -10z m756 -13 c-10 -9 -11 -8 -5 6 3 10 9 15 12 12 3 -3 0 -11 -7 -18z m99
11 c0 -4 -4 -8 -9 -8 -6 0 -12 4 -15 8 -3 5 1 9 9 9 8 0 15 -4 15 -9z m124
-10 c-3 -4 -11 -5 -19 -1 -21 7 -19 12 4 10 11 0 18 -5 15 -9z m-1187 -40 c-3
-8 -6 -5 -6 6 -1 11 2 17 5 13 3 -3 4 -12 1 -19z m1158 4 c-3 -3 -11 0 -18 7
-9 10 -8 11 6 5 10 -3 15 -9 12 -12z m-878 -14 c-3 -8 -6 -5 -6 6 -1 11 2 17
5 13 3 -3 4 -12 1 -19z m766 7 c-3 -9 -8 -14 -10 -11 -3 3 -2 9 2 15 9 16 15
13 8 -4z m145 -19 c2 -3 -10 -4 -27 -4 -18 1 -34 4 -36 8 -5 8 55 3 63 -4z
m-154 -15 c3 -5 -1 -11 -9 -14 -9 -4 -12 -1 -8 9 6 16 10 17 17 5z m-1019 -19
c-3 -3 -11 0 -18 7 -9 10 -8 11 6 5 10 -3 15 -9 12 -12z m953 -18 c23 -4 27
-14 5 -14 -11 0 -27 8 -34 17 -12 15 -12 16 1 8 8 -5 21 -10 28 -11z m82 12
c0 -3 -4 -8 -10 -11 -5 -3 -10 -1 -10 4 0 6 5 11 10 11 6 0 10 -2 10 -4z m-33
-31 c0 -8 -4 -15 -9 -15 -10 0 -11 14 -1 23 9 10 10 9 10 -8z m127 7 c3 -5 -1
-9 -9 -9 -8 0 -12 4 -9 9 3 4 7 8 9 8 2 0 6 -4 9 -8z m-290 -20 c3 -5 -1 -9
-9 -9 -8 0 -12 4 -9 9 3 4 7 8 9 8 2 0 6 -4 9 -8z m-837 -24 c-3 -8 -6 -5 -6
6 -1 11 2 17 5 13 3 -3 4 -12 1 -19z m1083 -38 c0 -5 -4 -10 -10 -10 -5 0 -10
5 -10 10 0 6 5 10 10 10 6 0 10 -4 10 -10z m-10 -44 c0 -2 -7 -7 -16 -10 -8
-3 -12 -2 -9 4 6 10 25 14 25 6z"/>
<path d="M2135 3630 c-3 -5 -1 -10 4 -10 6 0 11 5 11 10 0 6 -2 10 -4 10 -3 0
-8 -4 -11 -10z"/>
<path d="M2674 3625 c-3 -8 -4 -20 -1 -27 3 -7 6 -2 6 12 1 20 3 22 11 10 8
-13 10 -12 10 3 0 21 -18 23 -26 2z"/>
<path d="M2935 3619 l-30 -19 39 5 c21 3 44 1 50 -4 10 -9 16 -11 34 -11 4 0
1 -4 -6 -9 -11 -7 -11 -9 1 -14 10 -4 14 1 12 16 -1 12 -4 23 -5 25 -1 1 -3 8
-4 14 0 7 -10 14 -21 15 -11 2 -14 0 -7 -3 6 -3 12 -13 11 -22 0 -11 -2 -12
-6 -4 -2 6 -14 12 -26 12 -18 0 -19 2 -7 10 8 5 11 9 5 9 -5 0 -23 -9 -40 -20z"/>
<path d="M1926 3622 c-3 -5 1 -9 9 -9 8 0 12 4 9 9 -3 4 -7 8 -9 8 -2 0 -6 -4
-9 -8z"/>
<path d="M1960 3615 c0 -8 4 -15 10 -15 5 0 7 7 4 15 -4 8 -8 15 -10 15 -2 0
-4 -7 -4 -15z"/>
<path d="M1776 3602 c-8 -13 22 -44 36 -36 7 4 5 -1 -4 -12 -14 -16 -15 -23
-6 -32 17 -17 33 -15 18 3 -10 12 -9 16 3 21 13 5 14 9 5 24 -7 10 -16 16 -22
13 -5 -4 -7 1 -3 10 6 17 -17 25 -27 9z"/>
<path d="M1870 3599 c0 -5 5 -7 10 -4 6 3 10 8 10 11 0 2 -4 4 -10 4 -5 0 -10
-5 -10 -11z"/>
<path d="M1704 3592 c-18 -6 -20 -9 -8 -20 11 -10 15 -8 24 8 6 11 9 20 8 19
-2 -1 -13 -4 -24 -7z"/>
<path d="M1746 3583 c-6 -14 -5 -15 5 -6 7 7 10 15 7 18 -3 3 -9 -2 -12 -12z"/>
<path d="M1622 3570 c0 -14 2 -19 5 -12 2 6 2 18 0 25 -3 6 -5 1 -5 -13z"/>
<path d="M2900 3570 c-8 -11 -22 -20 -32 -20 -9 0 -20 -5 -23 -10 -4 -6 -11
-7 -17 -4 -7 4 -8 2 -4 -5 6 -9 11 -9 24 1 13 11 15 11 10 -3 -5 -14 -3 -15
18 -5 13 6 24 14 24 18 0 4 12 3 26 -2 22 -9 25 -8 21 4 -4 9 -2 18 3 21 13 8
13 25 -1 25 -5 0 -8 -3 -6 -7 3 -5 -2 -15 -11 -22 -14 -13 -15 -12 -10 7 8 27
-3 28 -22 2z"/>
<path d="M2983 3575 c0 -8 4 -12 9 -9 5 3 6 10 3 15 -9 13 -12 11 -12 -6z"/>
<path d="M1729 3538 c-4 -31 -2 -48 6 -48 6 0 10 8 10 18 0 9 3 22 7 28 4 6 1
11 -7 11 -8 0 -15 -4 -16 -9z"/>
<path d="M1630 3531 c0 -5 5 -13 10 -16 6 -3 10 -2 10 4 0 5 -4 13 -10 16 -5
3 -10 2 -10 -4z"/>
<path d="M1977 3533 c-10 -9 -9 -33 1 -33 4 0 8 9 8 20 0 23 0 22 -9 13z"/>
<path d="M1757 3504 c3 -7 8 -12 12 -10 4 3 13 1 20 -3 10 -7 11 -14 1 -32
-11 -23 -10 -23 4 -5 27 34 19 53 -23 61 -14 2 -18 -1 -14 -11z"/>
<path d="M2125 3499 c-13 -5 -15 -8 -5 -8 13 -1 13 -2 0 -11 -11 -7 -4 -9 24
-6 45 6 48 7 36 26 -8 12 -10 12 -10 1 0 -9 -4 -10 -12 -3 -8 5 -22 6 -33 1z"/>
<path d="M3633 1569 c-116 -45 -203 -169 -204 -291 -1 -75 6 -108 37 -168 77
-154 278 -218 439 -140 62 30 128 105 155 176 29 78 25 196 -9 264 -33 64
-112 135 -177 160 -71 26 -171 26 -241 -1z"/>
</g>
</svg>
